<svg width="411" height="240" viewBox="0 0 411 240" fill="none" xmlns="http://www.w3.org/2000/svg">
<rect x="11" y="60" width="384.275" height="169" fill="#1E1E1E"/>
<path d="M17.028 82H378.699V84H17.028V82Z" fill="#D9D9D9"/>
<rect width="361.671" height="2" transform="matrix(1 0 0 -1 17.028 137)" fill="#D9D9D9"/>
<rect width="223.03" height="2" transform="matrix(1 0 0 -1 17.028 166)" fill="#D9D9D9"/>
<rect width="361.671" height="2" transform="matrix(1 0 0 -1 17.028 192)" fill="#D9D9D9"/>
<rect width="361.671" height="2" transform="matrix(1 0 0 -1 17.028 213)" fill="#D9D9D9"/>
<rect width="51" height="3.01392" transform="matrix(0 -1 -1 0 267.184 135)" fill="#D9D9D9"/>
<rect width="56" height="3.01392" transform="matrix(0 -1 -1 0 240.058 191)" fill="#D9D9D9"/>
<path d="M11 13H395.275V60H11L11 13Z" fill="#1E1E1E"/>
<path d="M186.108 60.074L135.943 60.0741L186.108 36.9306L236.273 36.9309L186.108 60.074Z" fill="#D9D9D9"/>
<path d="M186.108 13.7874L135.943 13.7872L186.108 36.9307L236.273 36.9304L186.108 13.7874Z" fill="#D9D9D9"/>
<path d="M287.981 60.074L237.816 60.0741L287.981 36.9306L338.146 36.9309L287.981 60.074Z" fill="#D9D9D9"/>
<path d="M287.981 13.7874L237.816 13.7872L287.981 36.9307L338.146 36.9304L287.981 13.7874Z" fill="#D9D9D9"/>
<path d="M84.2351 60.074L34.0703 60.0741L84.2349 36.9306L134.399 36.9309L84.2351 60.074Z" fill="#D9D9D9"/>
<path d="M84.2351 13.7874L34.0703 13.7872L84.2349 36.9307L134.399 36.9304L84.2351 13.7874Z" fill="#D9D9D9"/>
<path d="M389.854 13.7872L339.69 13.7871L389.854 36.9306L395.275 36.9306L395.276 16.5L389.854 13.7872Z" fill="#D9D9D9"/>
<path d="M389.806 60L339.641 60.0001L389.806 36.8567L395.227 36.8567L395.227 57.2872L389.806 60Z" fill="#D9D9D9"/>
<path d="M35.8963 120V98.1818H50.3423V101.985H40.5092V107.184H49.3835V110.987H40.5092V120H35.8963ZM59.6161 120.32C57.9329 120.32 56.484 119.979 55.2695 119.297C54.0621 118.608 53.1317 117.635 52.4783 116.378C51.8249 115.114 51.4982 113.619 51.4982 111.893C51.4982 110.21 51.8249 108.732 52.4783 107.461C53.1317 106.19 54.0515 105.199 55.2376 104.489C56.4308 103.778 57.8299 103.423 59.435 103.423C60.5146 103.423 61.5195 103.597 62.4499 103.945C63.3874 104.286 64.2042 104.801 64.9002 105.49C65.6033 106.179 66.1502 107.045 66.5408 108.089C66.9315 109.126 67.1268 110.341 67.1268 111.733V112.979H53.3093V110.167H62.8548C62.8548 109.513 62.7127 108.935 62.4286 108.43C62.1445 107.926 61.7504 107.532 61.2461 107.248C60.7489 106.957 60.1701 106.811 59.5096 106.811C58.8207 106.811 58.2099 106.971 57.6772 107.29C57.1516 107.603 56.7397 108.026 56.4414 108.558C56.1431 109.084 55.9904 109.67 55.9833 110.316V112.99C55.9833 113.8 56.1325 114.499 56.4308 115.089C56.7362 115.678 57.1658 116.133 57.7198 116.452C58.2738 116.772 58.9308 116.932 59.6907 116.932C60.195 116.932 60.6566 116.861 61.0756 116.719C61.4947 116.577 61.8533 116.364 62.1516 116.08C62.4499 115.795 62.6772 115.447 62.8335 115.036L67.0309 115.312C66.8178 116.321 66.381 117.202 65.7205 117.955C65.0671 118.7 64.2219 119.283 63.185 119.702C62.1552 120.114 60.9656 120.32 59.6161 120.32ZM74.7546 120.309C73.7106 120.309 72.7802 120.128 71.9634 119.766C71.1467 119.396 70.5004 118.853 70.0245 118.136C69.5558 117.411 69.3214 116.509 69.3214 115.43C69.3214 114.521 69.4883 113.757 69.8221 113.139C70.1559 112.521 70.6104 112.024 71.1857 111.648C71.761 111.271 72.4144 110.987 73.146 110.795C73.8846 110.604 74.6587 110.469 75.4684 110.391C76.4201 110.291 77.1871 110.199 77.7695 110.114C78.3519 110.021 78.7745 109.886 79.0373 109.709C79.3001 109.531 79.4315 109.268 79.4315 108.92V108.857C79.4315 108.182 79.2184 107.66 78.7923 107.29C78.3732 106.921 77.7766 106.737 77.0025 106.737C76.1857 106.737 75.5359 106.918 75.0529 107.28C74.57 107.635 74.2504 108.082 74.0941 108.622L69.8967 108.281C70.1097 107.287 70.5288 106.428 71.1538 105.703C71.7788 104.972 72.5849 104.411 73.5721 104.02C74.5664 103.622 75.717 103.423 77.0238 103.423C77.9329 103.423 78.8029 103.53 79.6339 103.743C80.4719 103.956 81.2141 104.286 81.8604 104.734C82.5138 105.181 83.0288 105.756 83.4052 106.46C83.7816 107.156 83.9698 107.99 83.9698 108.963V120H79.6658V117.731H79.538C79.2752 118.242 78.9237 118.693 78.4833 119.084C78.043 119.467 77.5138 119.769 76.896 119.989C76.2781 120.202 75.5643 120.309 74.7546 120.309ZM76.0543 117.177C76.7219 117.177 77.3114 117.045 77.8228 116.783C78.3342 116.513 78.7354 116.151 79.0266 115.696C79.3178 115.241 79.4634 114.727 79.4634 114.151V112.415C79.3214 112.507 79.1261 112.592 78.8775 112.67C78.636 112.741 78.3626 112.809 78.0572 112.873C77.7518 112.93 77.4464 112.983 77.141 113.033C76.8356 113.075 76.5586 113.114 76.31 113.15C75.7773 113.228 75.3121 113.352 74.9144 113.523C74.5167 113.693 74.2077 113.924 73.9876 114.215C73.7674 114.499 73.6573 114.854 73.6573 115.281C73.6573 115.898 73.881 116.371 74.3285 116.697C74.783 117.017 75.3583 117.177 76.0543 117.177ZM96.1946 103.636V107.045H86.3402V103.636H96.1946ZM88.5774 99.7159H93.1158V114.972C93.1158 115.391 93.1797 115.717 93.3075 115.952C93.4354 116.179 93.6129 116.339 93.8402 116.431C94.0746 116.523 94.3445 116.57 94.6499 116.57C94.8629 116.57 95.076 116.552 95.2891 116.516C95.5021 116.474 95.6655 116.442 95.7791 116.42L96.4929 119.798C96.2656 119.869 95.946 119.95 95.5341 120.043C95.1222 120.142 94.6214 120.202 94.032 120.224C92.9382 120.266 91.9794 120.121 91.1555 119.787C90.3388 119.453 89.7031 118.935 89.2486 118.232C88.794 117.528 88.5703 116.641 88.5774 115.568V99.7159ZM109.645 113.033V103.636H114.183V120H109.826V117.028H109.655C109.286 117.987 108.672 118.757 107.812 119.339C106.96 119.922 105.919 120.213 104.691 120.213C103.597 120.213 102.635 119.964 101.804 119.467C100.973 118.97 100.323 118.263 99.854 117.347C99.3924 116.431 99.158 115.334 99.1509 114.055V103.636H103.689V113.246C103.696 114.212 103.956 114.975 104.467 115.536C104.978 116.097 105.664 116.378 106.523 116.378C107.07 116.378 107.581 116.254 108.057 116.005C108.533 115.749 108.917 115.373 109.208 114.876C109.506 114.379 109.652 113.764 109.645 113.033ZM117.813 120V103.636H122.213V106.491H122.383C122.682 105.476 123.182 104.709 123.885 104.19C124.589 103.665 125.398 103.402 126.314 103.402C126.542 103.402 126.787 103.416 127.05 103.445C127.312 103.473 127.543 103.512 127.742 103.562V107.589C127.529 107.525 127.234 107.468 126.858 107.418C126.481 107.369 126.137 107.344 125.824 107.344C125.157 107.344 124.56 107.489 124.035 107.781C123.516 108.065 123.104 108.462 122.799 108.974C122.501 109.485 122.351 110.075 122.351 110.742V120H117.813ZM136.784 120.32C135.101 120.32 133.652 119.979 132.438 119.297C131.23 118.608 130.3 117.635 129.646 116.378C128.993 115.114 128.666 113.619 128.666 111.893C128.666 110.21 128.993 108.732 129.646 107.461C130.3 106.19 131.219 105.199 132.406 104.489C133.599 103.778 134.998 103.423 136.603 103.423C137.683 103.423 138.688 103.597 139.618 103.945C140.555 104.286 141.372 104.801 142.068 105.49C142.771 106.179 143.318 107.045 143.709 108.089C144.099 109.126 144.295 110.341 144.295 111.733V112.979H130.477V110.167H140.023C140.023 109.513 139.881 108.935 139.597 108.43C139.313 107.926 138.918 107.532 138.414 107.248C137.917 106.957 137.338 106.811 136.678 106.811C135.989 106.811 135.378 106.971 134.845 107.29C134.32 107.603 133.908 108.026 133.609 108.558C133.311 109.084 133.158 109.67 133.151 110.316V112.99C133.151 113.8 133.3 114.499 133.599 115.089C133.904 115.678 134.334 116.133 134.888 116.452C135.442 116.772 136.099 116.932 136.859 116.932C137.363 116.932 137.825 116.861 138.244 116.719C138.663 116.577 139.021 116.364 139.32 116.08C139.618 115.795 139.845 115.447 140.001 115.036L144.199 115.312C143.986 116.321 143.549 117.202 142.888 117.955C142.235 118.7 141.39 119.283 140.353 119.702C139.323 120.114 138.134 120.32 136.784 120.32ZM160.871 108.303L156.717 108.558C156.646 108.203 156.493 107.884 156.259 107.599C156.024 107.308 155.715 107.077 155.332 106.907C154.955 106.729 154.504 106.641 153.979 106.641C153.276 106.641 152.683 106.79 152.2 107.088C151.717 107.379 151.475 107.77 151.475 108.26C151.475 108.651 151.631 108.981 151.944 109.251C152.256 109.521 152.793 109.737 153.553 109.901L156.514 110.497C158.105 110.824 159.291 111.349 160.072 112.074C160.854 112.798 161.244 113.75 161.244 114.929C161.244 116.001 160.928 116.942 160.296 117.752C159.671 118.562 158.812 119.194 157.718 119.648C156.631 120.096 155.378 120.32 153.957 120.32C151.791 120.32 150.065 119.869 148.78 118.967C147.501 118.058 146.752 116.822 146.532 115.259L150.996 115.025C151.131 115.685 151.457 116.19 151.976 116.538C152.494 116.879 153.158 117.049 153.968 117.049C154.763 117.049 155.403 116.896 155.886 116.591C156.376 116.278 156.624 115.877 156.631 115.387C156.624 114.975 156.45 114.638 156.109 114.375C155.768 114.105 155.243 113.899 154.533 113.757L151.699 113.192C150.101 112.873 148.911 112.319 148.13 111.531C147.356 110.742 146.969 109.737 146.969 108.516C146.969 107.464 147.253 106.559 147.821 105.799C148.396 105.039 149.202 104.453 150.239 104.041C151.283 103.629 152.505 103.423 153.904 103.423C155.971 103.423 157.597 103.86 158.783 104.734C159.977 105.607 160.673 106.797 160.871 108.303Z" fill="white"/>
</svg>
