<svg width="411" height="240" viewBox="0 0 411 240" fill="none" xmlns="http://www.w3.org/2000/svg">
<rect x="11" y="60" width="384.275" height="169" fill="#1E1E1E"/>
<path d="M17.028 82H378.699V84H17.028V82Z" fill="#D9D9D9"/>
<rect width="361.671" height="2" transform="matrix(1 0 0 -1 17.028 137)" fill="#D9D9D9"/>
<rect width="223.03" height="2" transform="matrix(1 0 0 -1 17.028 166)" fill="#D9D9D9"/>
<rect width="361.671" height="2" transform="matrix(1 0 0 -1 17.028 192)" fill="#D9D9D9"/>
<rect width="361.671" height="2" transform="matrix(1 0 0 -1 17.028 213)" fill="#D9D9D9"/>
<rect width="51" height="3.01392" transform="matrix(0 -1 -1 0 267.184 135)" fill="#D9D9D9"/>
<rect width="56" height="3.01392" transform="matrix(0 -1 -1 0 240.058 191)" fill="#D9D9D9"/>
<path d="M11 13H395.275V60H11L11 13Z" fill="#1E1E1E"/>
<path d="M186.108 60.074L135.943 60.0741L186.108 36.9306L236.273 36.9309L186.108 60.074Z" fill="#D9D9D9"/>
<path d="M186.108 13.7874L135.943 13.7872L186.108 36.9307L236.273 36.9304L186.108 13.7874Z" fill="#D9D9D9"/>
<path d="M287.981 60.074L237.816 60.0741L287.981 36.9306L338.146 36.9309L287.981 60.074Z" fill="#D9D9D9"/>
<path d="M287.981 13.7874L237.816 13.7872L287.981 36.9307L338.146 36.9304L287.981 13.7874Z" fill="#D9D9D9"/>
<path d="M84.2351 60.074L34.0703 60.0741L84.2349 36.9306L134.399 36.9309L84.2351 60.074Z" fill="#D9D9D9"/>
<path d="M84.2351 13.7874L34.0703 13.7872L84.2349 36.9307L134.399 36.9304L84.2351 13.7874Z" fill="#D9D9D9"/>
<path d="M389.854 13.7872L339.69 13.7871L389.854 36.9306L395.275 36.9306L395.276 16.5L389.854 13.7872Z" fill="#D9D9D9"/>
<path d="M389.806 60L339.641 60.0001L389.806 36.8567L395.227 36.8567L395.227 57.2872L389.806 60Z" fill="#D9D9D9"/>
<path d="M47.7322 104.457C47.647 103.597 47.2813 102.93 46.6349 102.454C45.9886 101.978 45.1115 101.74 44.0036 101.74C43.2507 101.74 42.6151 101.847 42.0966 102.06C41.5781 102.266 41.1804 102.553 40.9034 102.923C40.6335 103.292 40.4986 103.711 40.4986 104.18C40.4844 104.57 40.5661 104.911 40.7436 105.202C40.9283 105.494 41.1804 105.746 41.5 105.959C41.8196 106.165 42.1889 106.346 42.608 106.502C43.027 106.651 43.4744 106.779 43.9503 106.886L45.9105 107.354C46.8622 107.567 47.7358 107.852 48.5312 108.207C49.3267 108.562 50.0156 108.999 50.598 109.517C51.1804 110.036 51.6314 110.646 51.951 111.349C52.2777 112.053 52.4446 112.859 52.4517 113.768C52.4446 115.103 52.1037 116.261 51.429 117.241C50.7614 118.214 49.7955 118.97 48.5312 119.51C47.2741 120.043 45.7578 120.309 43.9822 120.309C42.2209 120.309 40.6868 120.039 39.38 119.499C38.0803 118.96 37.0646 118.161 36.3331 117.102C35.6087 116.037 35.2287 114.719 35.1932 113.15H39.657C39.7067 113.881 39.9162 114.492 40.2855 114.982C40.6619 115.465 41.1626 115.831 41.7876 116.08C42.4197 116.321 43.1335 116.442 43.929 116.442C44.7102 116.442 45.3885 116.328 45.9638 116.101C46.5462 115.874 46.9972 115.558 47.3168 115.153C47.6364 114.748 47.7962 114.283 47.7962 113.757C47.7962 113.267 47.6506 112.855 47.3594 112.521C47.0753 112.187 46.6563 111.903 46.1023 111.669C45.5554 111.435 44.8842 111.222 44.0888 111.03L41.7131 110.433C39.8736 109.986 38.4212 109.286 37.3558 108.335C36.2905 107.383 35.7614 106.101 35.7685 104.489C35.7614 103.168 36.1129 102.013 36.8232 101.026C37.5405 100.039 38.5241 99.2685 39.7741 98.7145C41.0241 98.1605 42.4446 97.8835 44.0355 97.8835C45.6548 97.8835 47.0682 98.1605 48.2756 98.7145C49.4901 99.2685 50.4347 100.039 51.1094 101.026C51.7841 102.013 52.1321 103.157 52.1534 104.457H47.7322ZM60.0076 110.54V120H55.4693V98.1818H59.8798V106.523H60.0716C60.4409 105.558 61.0375 104.801 61.8613 104.254C62.6852 103.7 63.7186 103.423 64.9615 103.423C66.0978 103.423 67.0886 103.672 67.9338 104.169C68.786 104.659 69.4466 105.366 69.9153 106.289C70.3912 107.205 70.6255 108.303 70.6184 109.581V120H66.0801V110.391C66.0872 109.382 65.8315 108.597 65.313 108.036C64.8017 107.475 64.0843 107.195 63.161 107.195C62.5431 107.195 61.9963 107.326 61.5204 107.589C61.0517 107.852 60.6824 108.235 60.4125 108.739C60.1497 109.237 60.0147 109.837 60.0076 110.54ZM81.5835 120.32C79.9286 120.32 78.4975 119.968 77.2901 119.265C76.0898 118.555 75.163 117.567 74.5096 116.303C73.8562 115.032 73.5295 113.558 73.5295 111.882C73.5295 110.192 73.8562 108.714 74.5096 107.45C75.163 106.179 76.0898 105.192 77.2901 104.489C78.4975 103.778 79.9286 103.423 81.5835 103.423C83.2383 103.423 84.6658 103.778 85.8661 104.489C87.0735 105.192 88.0039 106.179 88.6573 107.45C89.3107 108.714 89.6374 110.192 89.6374 111.882C89.6374 113.558 89.3107 115.032 88.6573 116.303C88.0039 117.567 87.0735 118.555 85.8661 119.265C84.6658 119.968 83.2383 120.32 81.5835 120.32ZM81.6048 116.804C82.3576 116.804 82.9862 116.591 83.4904 116.165C83.9947 115.732 84.3746 115.142 84.6303 114.396C84.8931 113.651 85.0245 112.802 85.0245 111.85C85.0245 110.898 84.8931 110.05 84.6303 109.304C84.3746 108.558 83.9947 107.969 83.4904 107.536C82.9862 107.102 82.3576 106.886 81.6048 106.886C80.8448 106.886 80.2056 107.102 79.6871 107.536C79.1758 107.969 78.7887 108.558 78.5259 109.304C78.2702 110.05 78.1424 110.898 78.1424 111.85C78.1424 112.802 78.2702 113.651 78.5259 114.396C78.7887 115.142 79.1758 115.732 79.6871 116.165C80.2056 116.591 80.8448 116.804 81.6048 116.804ZM92.5884 120V103.636H96.9883V106.491H97.1587C97.457 105.476 97.9577 104.709 98.6609 104.19C99.364 103.665 100.174 103.402 101.09 103.402C101.317 103.402 101.562 103.416 101.825 103.445C102.088 103.473 102.319 103.512 102.517 103.562V107.589C102.304 107.525 102.01 107.468 101.633 107.418C101.257 107.369 100.912 107.344 100.6 107.344C99.9322 107.344 99.3356 107.489 98.81 107.781C98.2915 108.065 97.8796 108.462 97.5742 108.974C97.2759 109.485 97.1268 110.075 97.1268 110.742V120H92.5884ZM114.388 103.636V107.045H104.534V103.636H114.388ZM106.771 99.7159H111.309V114.972C111.309 115.391 111.373 115.717 111.501 115.952C111.629 116.179 111.806 116.339 112.034 116.431C112.268 116.523 112.538 116.57 112.843 116.57C113.056 116.57 113.269 116.552 113.482 116.516C113.695 116.474 113.859 116.442 113.972 116.42L114.686 119.798C114.459 119.869 114.139 119.95 113.727 120.043C113.316 120.142 112.815 120.202 112.225 120.224C111.132 120.266 110.173 120.121 109.349 119.787C108.532 119.453 107.896 118.935 107.442 118.232C106.987 117.528 106.764 116.641 106.771 115.568V99.7159ZM124.373 120V98.1818H138.819V101.985H128.986V107.184H137.86V110.987H128.986V120H124.373ZM141.836 120V103.636H146.375V120H141.836ZM144.116 101.527C143.442 101.527 142.863 101.303 142.38 100.856C141.904 100.401 141.666 99.858 141.666 99.2259C141.666 98.6009 141.904 98.0646 142.38 97.6172C142.863 97.1626 143.442 96.9354 144.116 96.9354C144.791 96.9354 145.366 97.1626 145.842 97.6172C146.325 98.0646 146.567 98.6009 146.567 99.2259C146.567 99.858 146.325 100.401 145.842 100.856C145.366 101.303 144.791 101.527 144.116 101.527ZM154.549 98.1818V120H150.01V98.1818H154.549ZM158.184 120V103.636H162.509V106.523H162.701C163.042 105.565 163.61 104.808 164.406 104.254C165.201 103.7 166.153 103.423 167.261 103.423C168.383 103.423 169.338 103.704 170.127 104.265C170.915 104.819 171.441 105.572 171.703 106.523H171.874C172.208 105.586 172.811 104.837 173.685 104.276C174.566 103.707 175.606 103.423 176.806 103.423C178.333 103.423 179.573 103.91 180.524 104.883C181.483 105.849 181.963 107.219 181.963 108.995V120H177.435V109.89C177.435 108.981 177.193 108.299 176.71 107.844C176.227 107.39 175.624 107.163 174.899 107.163C174.075 107.163 173.433 107.425 172.971 107.951C172.509 108.469 172.279 109.155 172.279 110.007V120H167.879V109.794C167.879 108.991 167.648 108.352 167.186 107.876C166.732 107.401 166.132 107.163 165.386 107.163C164.882 107.163 164.427 107.29 164.022 107.546C163.624 107.795 163.308 108.146 163.074 108.601C162.84 109.048 162.722 109.574 162.722 110.178V120H158.184ZM199.162 108.303L195.008 108.558C194.937 108.203 194.784 107.884 194.55 107.599C194.315 107.308 194.006 107.077 193.623 106.907C193.246 106.729 192.795 106.641 192.27 106.641C191.567 106.641 190.974 106.79 190.491 107.088C190.008 107.379 189.766 107.77 189.766 108.26C189.766 108.651 189.922 108.981 190.235 109.251C190.547 109.521 191.084 109.737 191.844 109.901L194.805 110.497C196.396 110.824 197.582 111.349 198.363 112.074C199.145 112.798 199.535 113.75 199.535 114.929C199.535 116.001 199.219 116.942 198.587 117.752C197.962 118.562 197.103 119.194 196.009 119.648C194.922 120.096 193.669 120.32 192.248 120.32C190.082 120.32 188.356 119.869 187.071 118.967C185.792 118.058 185.043 116.822 184.823 115.259L189.287 115.025C189.422 115.685 189.748 116.19 190.267 116.538C190.785 116.879 191.449 117.049 192.259 117.049C193.055 117.049 193.694 116.896 194.177 116.591C194.667 116.278 194.915 115.877 194.922 115.387C194.915 114.975 194.741 114.638 194.4 114.375C194.059 114.105 193.534 113.899 192.824 113.757L189.99 113.192C188.392 112.873 187.202 112.319 186.421 111.531C185.647 110.742 185.26 109.737 185.26 108.516C185.26 107.464 185.544 106.559 186.112 105.799C186.687 105.039 187.493 104.453 188.53 104.041C189.574 103.629 190.796 103.423 192.195 103.423C194.262 103.423 195.888 103.86 197.074 104.734C198.268 105.607 198.964 106.797 199.162 108.303Z" fill="white"/>
</svg>
