<svg width="411" height="240" viewBox="0 0 411 240" fill="none" xmlns="http://www.w3.org/2000/svg">
<rect x="11" y="60" width="384.275" height="169" fill="#1E1E1E"/>
<path d="M17.028 82H378.699V84H17.028V82Z" fill="#D9D9D9"/>
<rect width="361.671" height="2" transform="matrix(1 0 0 -1 17.028 137)" fill="#D9D9D9"/>
<rect width="223.03" height="2" transform="matrix(1 0 0 -1 17.028 166)" fill="#D9D9D9"/>
<rect width="361.671" height="2" transform="matrix(1 0 0 -1 17.028 192)" fill="#D9D9D9"/>
<rect width="361.671" height="2" transform="matrix(1 0 0 -1 17.028 213)" fill="#D9D9D9"/>
<rect width="51" height="3.01392" transform="matrix(0 -1 -1 0 267.184 135)" fill="#D9D9D9"/>
<rect width="56" height="3.01392" transform="matrix(0 -1 -1 0 240.058 191)" fill="#D9D9D9"/>
<path d="M11 13H395.275V60H11L11 13Z" fill="#1E1E1E"/>
<path d="M186.108 60.074L135.943 60.0741L186.108 36.9306L236.273 36.9309L186.108 60.074Z" fill="#D9D9D9"/>
<path d="M186.108 13.7874L135.943 13.7872L186.108 36.9307L236.273 36.9304L186.108 13.7874Z" fill="#D9D9D9"/>
<path d="M287.981 60.074L237.816 60.0741L287.981 36.9306L338.146 36.9309L287.981 60.074Z" fill="#D9D9D9"/>
<path d="M287.981 13.7874L237.816 13.7872L287.981 36.9307L338.146 36.9304L287.981 13.7874Z" fill="#D9D9D9"/>
<path d="M84.2351 60.074L34.0703 60.0741L84.2349 36.9306L134.399 36.9309L84.2351 60.074Z" fill="#D9D9D9"/>
<path d="M84.2351 13.7874L34.0703 13.7872L84.2349 36.9307L134.399 36.9304L84.2351 13.7874Z" fill="#D9D9D9"/>
<path d="M389.854 13.7872L339.69 13.7871L389.854 36.9306L395.275 36.9306L395.276 16.5L389.854 13.7872Z" fill="#D9D9D9"/>
<path d="M389.806 60L339.641 60.0001L389.806 36.8567L395.227 36.8567L395.227 57.2872L389.806 60Z" fill="#D9D9D9"/>
<path d="M47.7322 104.457C47.647 103.597 47.2813 102.93 46.6349 102.454C45.9886 101.978 45.1115 101.74 44.0036 101.74C43.2507 101.74 42.6151 101.847 42.0966 102.06C41.5781 102.266 41.1804 102.553 40.9034 102.923C40.6335 103.292 40.4986 103.711 40.4986 104.18C40.4844 104.57 40.5661 104.911 40.7436 105.202C40.9283 105.494 41.1804 105.746 41.5 105.959C41.8196 106.165 42.1889 106.346 42.608 106.502C43.027 106.651 43.4744 106.779 43.9503 106.886L45.9105 107.354C46.8622 107.567 47.7358 107.852 48.5312 108.207C49.3267 108.562 50.0156 108.999 50.598 109.517C51.1804 110.036 51.6314 110.646 51.951 111.349C52.2777 112.053 52.4446 112.859 52.4517 113.768C52.4446 115.103 52.1037 116.261 51.429 117.241C50.7614 118.214 49.7955 118.97 48.5312 119.51C47.2741 120.043 45.7578 120.309 43.9822 120.309C42.2209 120.309 40.6868 120.039 39.38 119.499C38.0803 118.96 37.0646 118.161 36.3331 117.102C35.6087 116.037 35.2287 114.719 35.1932 113.15H39.657C39.7067 113.881 39.9162 114.492 40.2855 114.982C40.6619 115.465 41.1626 115.831 41.7876 116.08C42.4197 116.321 43.1335 116.442 43.929 116.442C44.7102 116.442 45.3885 116.328 45.9638 116.101C46.5462 115.874 46.9972 115.558 47.3168 115.153C47.6364 114.748 47.7962 114.283 47.7962 113.757C47.7962 113.267 47.6506 112.855 47.3594 112.521C47.0753 112.187 46.6563 111.903 46.1023 111.669C45.5554 111.435 44.8842 111.222 44.0888 111.03L41.7131 110.433C39.8736 109.986 38.4212 109.286 37.3558 108.335C36.2905 107.383 35.7614 106.101 35.7685 104.489C35.7614 103.168 36.1129 102.013 36.8232 101.026C37.5405 100.039 38.5241 99.2685 39.7741 98.7145C41.0241 98.1605 42.4446 97.8835 44.0355 97.8835C45.6548 97.8835 47.0682 98.1605 48.2756 98.7145C49.4901 99.2685 50.4347 100.039 51.1094 101.026C51.7841 102.013 52.1321 103.157 52.1534 104.457H47.7322ZM64.1731 103.636V107.045H54.3187V103.636H64.1731ZM56.5559 99.7159H61.0943V114.972C61.0943 115.391 61.1582 115.717 61.286 115.952C61.4139 116.179 61.5914 116.339 61.8187 116.431C62.0531 116.523 62.323 116.57 62.6284 116.57C62.8414 116.57 63.0545 116.552 63.2676 116.516C63.4806 116.474 63.644 116.442 63.7576 116.42L64.4714 119.798C64.2441 119.869 63.9245 119.95 63.5126 120.043C63.1007 120.142 62.6 120.202 62.0105 120.224C60.9167 120.266 59.9579 120.121 59.1341 119.787C58.3173 119.453 57.6816 118.935 57.2271 118.232C56.7725 117.528 56.5488 116.641 56.5559 115.568V99.7159ZM77.623 113.033V103.636H82.1614V120H77.8042V117.028H77.6337C77.2644 117.987 76.65 118.757 75.7907 119.339C74.9384 119.922 73.8979 120.213 72.6692 120.213C71.5755 120.213 70.6131 119.964 69.7821 119.467C68.9512 118.97 68.3013 118.263 67.8326 117.347C67.3709 116.431 67.1365 115.334 67.1294 114.055V103.636H71.6678V113.246C71.6749 114.212 71.9341 114.975 72.4455 115.536C72.9569 116.097 73.6422 116.378 74.5016 116.378C75.0485 116.378 75.5598 116.254 76.0357 116.005C76.5115 115.749 76.8951 115.373 77.1863 114.876C77.4846 114.379 77.6301 113.764 77.623 113.033ZM91.8214 120.266C90.5785 120.266 89.4528 119.947 88.4442 119.308C87.4428 118.661 86.6474 117.713 86.0579 116.463C85.4755 115.206 85.1843 113.665 85.1843 111.839C85.1843 109.964 85.4862 108.406 86.0898 107.163C86.6935 105.913 87.4961 104.979 88.4975 104.361C89.506 103.736 90.6104 103.423 91.8107 103.423C92.7269 103.423 93.4904 103.58 94.1012 103.892C94.7191 104.197 95.2163 104.581 95.5927 105.043C95.9762 105.497 96.2674 105.945 96.4663 106.385H96.6048V98.1818H101.132V120H96.658V117.379H96.4663C96.2532 117.834 95.9513 118.285 95.5607 118.732C95.1772 119.173 94.6765 119.538 94.0586 119.83C93.4478 120.121 92.7021 120.266 91.8214 120.266ZM93.2596 116.655C93.9911 116.655 94.609 116.456 95.1133 116.058C95.6246 115.653 96.0153 115.089 96.2852 114.364C96.5621 113.64 96.7006 112.791 96.7006 111.818C96.7006 110.845 96.5657 110 96.2958 109.283C96.0259 108.565 95.6353 108.011 95.1239 107.621C94.6126 107.23 93.9911 107.035 93.2596 107.035C92.5138 107.035 91.8853 107.237 91.3739 107.642C90.8626 108.047 90.4755 108.608 90.2127 109.325C89.9499 110.043 89.8185 110.874 89.8185 111.818C89.8185 112.77 89.9499 113.612 90.2127 114.343C90.4826 115.067 90.8697 115.636 91.3739 116.048C91.8853 116.452 92.5138 116.655 93.2596 116.655ZM112.321 120.32C110.638 120.32 109.189 119.979 107.975 119.297C106.767 118.608 105.837 117.635 105.183 116.378C104.53 115.114 104.203 113.619 104.203 111.893C104.203 110.21 104.53 108.732 105.183 107.461C105.837 106.19 106.757 105.199 107.943 104.489C109.136 103.778 110.535 103.423 112.14 103.423C113.22 103.423 114.225 103.597 115.155 103.945C116.093 104.286 116.909 104.801 117.605 105.49C118.308 106.179 118.855 107.045 119.246 108.089C119.637 109.126 119.832 110.341 119.832 111.733V112.979H106.014V110.167H115.56C115.56 109.513 115.418 108.935 115.134 108.43C114.85 107.926 114.455 107.532 113.951 107.248C113.454 106.957 112.875 106.811 112.215 106.811C111.526 106.811 110.915 106.971 110.382 107.29C109.857 107.603 109.445 108.026 109.146 108.558C108.848 109.084 108.695 109.67 108.688 110.316V112.99C108.688 113.8 108.838 114.499 109.136 115.089C109.441 115.678 109.871 116.133 110.425 116.452C110.979 116.772 111.636 116.932 112.396 116.932C112.9 116.932 113.362 116.861 113.781 116.719C114.2 116.577 114.558 116.364 114.857 116.08C115.155 115.795 115.382 115.447 115.539 115.036L119.736 115.312C119.523 116.321 119.086 117.202 118.426 117.955C117.772 118.7 116.927 119.283 115.89 119.702C114.86 120.114 113.671 120.32 112.321 120.32ZM127.332 110.54V120H122.794V103.636H127.119V106.523H127.311C127.673 105.572 128.28 104.819 129.132 104.265C129.985 103.704 131.018 103.423 132.232 103.423C133.369 103.423 134.36 103.672 135.205 104.169C136.05 104.666 136.707 105.376 137.176 106.3C137.644 107.216 137.879 108.31 137.879 109.581V120H133.34V110.391C133.347 109.389 133.092 108.608 132.573 108.047C132.055 107.479 131.341 107.195 130.432 107.195C129.821 107.195 129.281 107.326 128.813 107.589C128.351 107.852 127.989 108.235 127.726 108.739C127.47 109.237 127.339 109.837 127.332 110.54ZM150.159 103.636V107.045H140.305V103.636H150.159ZM142.542 99.7159H147.081V114.972C147.081 115.391 147.145 115.717 147.272 115.952C147.4 116.179 147.578 116.339 147.805 116.431C148.039 116.523 148.309 116.57 148.615 116.57C148.828 116.57 149.041 116.552 149.254 116.516C149.467 116.474 149.63 116.442 149.744 116.42L150.458 119.798C150.23 119.869 149.911 119.95 149.499 120.043C149.087 120.142 148.586 120.202 147.997 120.224C146.903 120.266 145.944 120.121 145.12 119.787C144.304 119.453 143.668 118.935 143.213 118.232C142.759 117.528 142.535 116.641 142.542 115.568V99.7159ZM160.144 120V98.1818H174.59V101.985H164.757V107.184H173.632V110.987H164.757V120H160.144ZM177.608 120V103.636H182.146V120H177.608ZM179.888 101.527C179.213 101.527 178.634 101.303 178.151 100.856C177.675 100.401 177.438 99.858 177.438 99.2259C177.438 98.6009 177.675 98.0646 178.151 97.6172C178.634 97.1626 179.213 96.9354 179.888 96.9354C180.563 96.9354 181.138 97.1626 181.614 97.6172C182.097 98.0646 182.338 98.6009 182.338 99.2259C182.338 99.858 182.097 100.401 181.614 100.856C181.138 101.303 180.563 101.527 179.888 101.527ZM190.32 98.1818V120H185.782V98.1818H190.32ZM193.956 120V103.636H198.281V106.523H198.473C198.814 105.565 199.382 104.808 200.177 104.254C200.973 103.7 201.924 103.423 203.032 103.423C204.154 103.423 205.11 103.704 205.898 104.265C206.686 104.819 207.212 105.572 207.475 106.523H207.645C207.979 105.586 208.583 104.837 209.456 104.276C210.337 103.707 211.377 103.423 212.578 103.423C214.105 103.423 215.344 103.91 216.296 104.883C217.255 105.849 217.734 107.219 217.734 108.995V120H213.206V109.89C213.206 108.981 212.965 108.299 212.482 107.844C211.999 107.39 211.395 107.163 210.671 107.163C209.847 107.163 209.204 107.425 208.743 107.951C208.281 108.469 208.05 109.155 208.05 110.007V120H203.65V109.794C203.65 108.991 203.419 108.352 202.958 107.876C202.503 107.401 201.903 107.163 201.157 107.163C200.653 107.163 200.199 107.29 199.794 107.546C199.396 107.795 199.08 108.146 198.846 108.601C198.611 109.048 198.494 109.574 198.494 110.178V120H193.956ZM234.934 108.303L230.779 108.558C230.708 108.203 230.555 107.884 230.321 107.599C230.087 107.308 229.778 107.077 229.394 106.907C229.018 106.729 228.567 106.641 228.041 106.641C227.338 106.641 226.745 106.79 226.262 107.088C225.779 107.379 225.538 107.77 225.538 108.26C225.538 108.651 225.694 108.981 226.006 109.251C226.319 109.521 226.855 109.737 227.615 109.901L230.577 110.497C232.168 110.824 233.354 111.349 234.135 112.074C234.916 112.798 235.307 113.75 235.307 114.929C235.307 116.001 234.991 116.942 234.359 117.752C233.734 118.562 232.874 119.194 231.781 119.648C230.694 120.096 229.44 120.32 228.02 120.32C225.854 120.32 224.128 119.869 222.842 118.967C221.564 118.058 220.815 116.822 220.594 115.259L225.058 115.025C225.193 115.685 225.52 116.19 226.038 116.538C226.557 116.879 227.221 117.049 228.031 117.049C228.826 117.049 229.465 116.896 229.948 116.591C230.438 116.278 230.687 115.877 230.694 115.387C230.687 114.975 230.513 114.638 230.172 114.375C229.831 114.105 229.305 113.899 228.595 113.757L225.761 113.192C224.163 112.873 222.974 112.319 222.192 111.531C221.418 110.742 221.031 109.737 221.031 108.516C221.031 107.464 221.315 106.559 221.884 105.799C222.459 105.039 223.265 104.453 224.302 104.041C225.346 103.629 226.567 103.423 227.967 103.423C230.033 103.423 231.66 103.86 232.846 104.734C234.039 105.607 234.735 106.797 234.934 108.303Z" fill="white"/>
</svg>
