<svg width="40" height="100%" viewBox="0 0 148 158" fill="none" xmlns="http://www.w3.org/2000/svg">
<path d="M75 157V107.36L67.1159 106.367L63.1739 105.374L59.2319 103.885L54.7971 101.403L50.8551 98.9209L47.4058 95.9424L43.9565 92.4676L41 88V157H75Z" fill="white"/>
<circle cx="75" cy="44" r="44" fill="white"/>
<path d="M46.5 104.493C46.5 118.024 37.3218 128.993 26 128.993C14.6782 128.993 5.5 118.024 5.5 104.493C5.5 90.9619 14.6782 79.9929 26 79.9929C37.3218 79.9929 46.5 90.9619 46.5 104.493Z" fill="white"/>
<path d="M5.90196 100H43V157L28 155.5L19.5 154L13 151.375L8.5 147.625L5.5 144.625L0 135.954L5.90196 100Z" fill="white"/>
<path d="M73 157.007V107.367L80.8841 106.374L84.8261 105.381L88.7681 103.892L93.2029 101.41L97.1449 98.9279L100.594 95.9495L104.043 92.4747L107 88.0071V157.007H73Z" fill="white"/>
<path d="M101.5 104.5C101.5 118.031 110.678 129 122 129C133.322 129 142.5 118.031 142.5 104.5C142.5 90.969 133.322 79.9999 122 79.9999C110.678 79.9999 101.5 90.969 101.5 104.5Z" fill="white"/>
<path d="M142.098 100.007H105V157.007L120 155.507L128.5 154.007L135 151.382L139.5 147.632L142.5 144.632L148 135.961L142.098 100.007Z" fill="white"/>
</svg>
