<svg width="102" height="38" viewBox="0 0 102 38" fill="none" xmlns="http://www.w3.org/2000/svg">
<g filter="url(#filter0_d_174_33)">
<rect width="31.4602" height="3.75712" rx="1.87856" transform="matrix(0.903913 -0.427717 0.87664 0.481147 15.4707 16.1357)" fill="#2F2F2F"/>
</g>
<g filter="url(#filter1_d_174_33)">
<rect width="31.5293" height="3.75692" rx="1.87846" transform="matrix(-0.903913 -0.427717 0.876778 -0.480894 43.9588 29.7854)" fill="#2F2F2F"/>
</g>
<path d="M53.2642 22V7.45455H59.0881C60.1581 7.45455 61.0507 7.61316 61.7656 7.9304C62.4806 8.24763 63.018 8.68797 63.3778 9.25142C63.7377 9.81013 63.9176 10.4541 63.9176 11.1832C63.9176 11.7514 63.804 12.2509 63.5767 12.6818C63.3494 13.108 63.0369 13.4583 62.6392 13.733C62.2462 14.0028 61.7964 14.1946 61.2898 14.3082V14.4503C61.8438 14.474 62.3622 14.6302 62.8452 14.919C63.3329 15.2079 63.7282 15.6127 64.0312 16.1335C64.3343 16.6496 64.4858 17.2652 64.4858 17.9801C64.4858 18.7519 64.294 19.4408 63.9105 20.0469C63.5317 20.6482 62.9706 21.1241 62.2273 21.4744C61.4839 21.8248 60.5677 22 59.4787 22H53.2642ZM56.3395 19.4858H58.8466C59.7036 19.4858 60.3286 19.3224 60.7216 18.9957C61.1146 18.6643 61.3111 18.224 61.3111 17.6747C61.3111 17.2723 61.214 16.9171 61.0199 16.6094C60.8258 16.3016 60.5488 16.0601 60.1889 15.8849C59.8338 15.7098 59.41 15.6222 58.9176 15.6222H56.3395V19.4858ZM56.3395 13.5412H58.6193C59.0407 13.5412 59.4148 13.4678 59.7415 13.321C60.0729 13.1695 60.3333 12.9564 60.5227 12.6818C60.7169 12.4072 60.8139 12.0781 60.8139 11.6946C60.8139 11.169 60.6269 10.7453 60.2528 10.4233C59.8835 10.1013 59.358 9.94034 58.6761 9.94034H56.3395V13.5412ZM69.5408 22.206C68.8448 22.206 68.2246 22.0852 67.68 21.8438C67.1355 21.5975 66.7047 21.2353 66.3874 20.7571C66.0749 20.2741 65.9187 19.6728 65.9187 18.9531C65.9187 18.3471 66.0299 17.8381 66.2525 17.4261C66.475 17.0142 66.7781 16.6828 67.1616 16.4318C67.5451 16.1809 67.9807 15.9915 68.4684 15.8636C68.9608 15.7358 69.4769 15.6458 70.0167 15.5938C70.6512 15.5275 71.1625 15.4659 71.5508 15.4091C71.939 15.3475 72.2208 15.2576 72.396 15.1392C72.5711 15.0208 72.6587 14.8456 72.6587 14.6136V14.571C72.6587 14.1212 72.5167 13.7732 72.2326 13.527C71.9532 13.2808 71.5555 13.1577 71.0394 13.1577C70.4949 13.1577 70.0617 13.2784 69.7397 13.5199C69.4177 13.7566 69.2047 14.0549 69.1005 14.4148L66.3022 14.1875C66.4442 13.5246 66.7236 12.9517 67.1403 12.4688C67.5569 11.9811 68.0943 11.607 68.7525 11.3466C69.4154 11.0814 70.1824 10.9489 71.0536 10.9489C71.6597 10.9489 72.2397 11.0199 72.7937 11.1619C73.3524 11.304 73.8472 11.5241 74.2781 11.8224C74.7137 12.1207 75.0569 12.5043 75.3079 12.973C75.5588 13.437 75.6843 13.9934 75.6843 14.642V22H72.815V20.4872H72.7298C72.5546 20.8281 72.3202 21.1288 72.0266 21.3892C71.7331 21.6449 71.3803 21.8461 70.9684 21.9929C70.5565 22.1349 70.0806 22.206 69.5408 22.206ZM70.4073 20.1179C70.8524 20.1179 71.2454 20.0303 71.5863 19.8551C71.9272 19.6752 72.1947 19.4337 72.3888 19.1307C72.583 18.8277 72.68 18.4844 72.68 18.1009V16.9432C72.5853 17.0047 72.4551 17.0616 72.2894 17.1136C72.1284 17.161 71.9461 17.206 71.7425 17.2486C71.5389 17.2865 71.3353 17.322 71.1317 17.3551C70.9281 17.3835 70.7435 17.4096 70.5778 17.4332C70.2227 17.4853 69.9125 17.5682 69.6474 17.6818C69.3822 17.7955 69.1763 17.9493 69.0295 18.1435C68.8827 18.3329 68.8093 18.5696 68.8093 18.8537C68.8093 19.2656 68.9585 19.5805 69.2567 19.7983C69.5598 20.0114 69.9433 20.1179 70.4073 20.1179ZM82.9606 22.2131C81.8432 22.2131 80.882 21.9763 80.0771 21.5028C79.2769 21.0246 78.6613 20.3617 78.2305 19.5142C77.8043 18.6667 77.5913 17.6913 77.5913 16.5881C77.5913 15.4706 77.8067 14.4905 78.2376 13.6477C78.6732 12.8002 79.2911 12.1397 80.0913 11.6662C80.8915 11.188 81.8432 10.9489 82.9464 10.9489C83.8981 10.9489 84.7314 11.1217 85.4464 11.4673C86.1613 11.813 86.7272 12.2983 87.1438 12.9233C87.5605 13.5483 87.7901 14.2822 87.8327 15.125H84.9776C84.8971 14.5805 84.6841 14.1425 84.3384 13.8111C83.9975 13.4749 83.5501 13.3068 82.9961 13.3068C82.5273 13.3068 82.1178 13.4347 81.7674 13.6903C81.4218 13.9413 81.1519 14.3082 80.9577 14.7912C80.7636 15.2741 80.6665 15.8589 80.6665 16.5455C80.6665 17.2415 80.7612 17.8333 80.9506 18.321C81.1448 18.8087 81.417 19.1804 81.7674 19.4361C82.1178 19.6918 82.5273 19.8196 82.9961 19.8196C83.3417 19.8196 83.6519 19.7486 83.9265 19.6065C84.2058 19.4645 84.4355 19.2585 84.6154 18.9886C84.8001 18.714 84.9208 18.3849 84.9776 18.0014H87.8327C87.7854 18.8348 87.5581 19.5687 87.1509 20.2031C86.7485 20.8329 86.1921 21.3253 85.4819 21.6804C84.7717 22.0355 83.9312 22.2131 82.9606 22.2131ZM92.5114 18.8608L92.5185 15.2315H92.9588L96.4531 11.0909H99.9261L95.2315 16.5739H94.5142L92.5114 18.8608ZM89.7699 22V7.45455H92.7955V22H89.7699ZM96.5881 22L93.3778 17.2486L95.3949 15.1108L100.132 22H96.5881Z" fill="#2F2F2F"/>
<defs>
<filter id="filter0_d_174_33" x="12.4501" y="3.17773" width="37.772" height="22.2678" filterUnits="userSpaceOnUse" color-interpolation-filters="sRGB">
<feFlood flood-opacity="0" result="BackgroundImageFix"/>
<feColorMatrix in="SourceAlpha" type="matrix" values="0 0 0 0 0 0 0 0 0 0 0 0 0 0 0 0 0 0 127 0" result="hardAlpha"/>
<feOffset dy="4"/>
<feGaussianBlur stdDeviation="2"/>
<feComposite in2="hardAlpha" operator="out"/>
<feColorMatrix type="matrix" values="0 0 0 0 0 0 0 0 0 0 0 0 0 0 0 0 0 0 0.25 0"/>
<feBlend mode="normal" in2="BackgroundImageFix" result="effect1_dropShadow_174_33"/>
<feBlend mode="normal" in="SourceGraphic" in2="effect1_dropShadow_174_33" result="shape"/>
</filter>
<filter id="filter1_d_174_33" x="12.4385" y="14.991" width="37.8348" height="22.2966" filterUnits="userSpaceOnUse" color-interpolation-filters="sRGB">
<feFlood flood-opacity="0" result="BackgroundImageFix"/>
<feColorMatrix in="SourceAlpha" type="matrix" values="0 0 0 0 0 0 0 0 0 0 0 0 0 0 0 0 0 0 127 0" result="hardAlpha"/>
<feOffset dy="4"/>
<feGaussianBlur stdDeviation="2"/>
<feComposite in2="hardAlpha" operator="out"/>
<feColorMatrix type="matrix" values="0 0 0 0 0 0 0 0 0 0 0 0 0 0 0 0 0 0 0.25 0"/>
<feBlend mode="normal" in2="BackgroundImageFix" result="effect1_dropShadow_174_33"/>
<feBlend mode="normal" in="SourceGraphic" in2="effect1_dropShadow_174_33" result="shape"/>
</filter>
</defs>
</svg>
