<svg width="411" height="240" viewBox="0 0 411 240" fill="none" xmlns="http://www.w3.org/2000/svg">
<rect x="11" y="60" width="384.275" height="169" fill="#1E1E1E"/>
<path d="M17.028 82H378.699V84H17.028V82Z" fill="#D9D9D9"/>
<rect width="361.671" height="2" transform="matrix(1 0 0 -1 17.028 137)" fill="#D9D9D9"/>
<rect width="223.03" height="2" transform="matrix(1 0 0 -1 17.028 166)" fill="#D9D9D9"/>
<rect width="361.671" height="2" transform="matrix(1 0 0 -1 17.028 192)" fill="#D9D9D9"/>
<rect width="361.671" height="2" transform="matrix(1 0 0 -1 17.028 213)" fill="#D9D9D9"/>
<rect width="51" height="3.01392" transform="matrix(0 -1 -1 0 267.184 135)" fill="#D9D9D9"/>
<rect width="56" height="3.01392" transform="matrix(0 -1 -1 0 240.058 191)" fill="#D9D9D9"/>
<path d="M11 13H395.275V60H11L11 13Z" fill="#1E1E1E"/>
<path d="M186.108 60.074L135.943 60.0741L186.108 36.9306L236.273 36.9309L186.108 60.074Z" fill="#D9D9D9"/>
<path d="M186.108 13.7874L135.943 13.7872L186.108 36.9307L236.273 36.9304L186.108 13.7874Z" fill="#D9D9D9"/>
<path d="M287.981 60.074L237.816 60.0741L287.981 36.9306L338.146 36.9309L287.981 60.074Z" fill="#D9D9D9"/>
<path d="M287.981 13.7874L237.816 13.7872L287.981 36.9307L338.146 36.9304L287.981 13.7874Z" fill="#D9D9D9"/>
<path d="M84.2351 60.074L34.0703 60.0741L84.2349 36.9306L134.399 36.9309L84.2351 60.074Z" fill="#D9D9D9"/>
<path d="M84.2351 13.7874L34.0703 13.7872L84.2349 36.9307L134.399 36.9304L84.2351 13.7874Z" fill="#D9D9D9"/>
<path d="M389.854 13.7872L339.69 13.7871L389.854 36.9306L395.275 36.9306L395.276 16.5L389.854 13.7872Z" fill="#D9D9D9"/>
<path d="M389.806 60L339.641 60.0001L389.806 36.8567L395.227 36.8567L395.227 57.2872L389.806 60Z" fill="#D9D9D9"/>
<path d="M54.1456 98.1818V120H50.1612L40.669 106.268H40.5092V120H35.8963V98.1818H39.9446L49.3622 111.903H49.554V98.1818H54.1456ZM65.329 120.32C63.6458 120.32 62.1969 119.979 60.9824 119.297C59.775 118.608 58.8446 117.635 58.1912 116.378C57.5378 115.114 57.2111 113.619 57.2111 111.893C57.2111 110.21 57.5378 108.732 58.1912 107.461C58.8446 106.19 59.7644 105.199 60.9505 104.489C62.1436 103.778 63.5428 103.423 65.1479 103.423C66.2275 103.423 67.2324 103.597 68.1628 103.945C69.1003 104.286 69.9171 104.801 70.6131 105.49C71.3162 106.179 71.8631 107.045 72.2537 108.089C72.6444 109.126 72.8397 110.341 72.8397 111.733V112.979H59.0222V110.167H68.5676C68.5676 109.513 68.4256 108.935 68.1415 108.43C67.8574 107.926 67.4632 107.532 66.959 107.248C66.4618 106.957 65.883 106.811 65.2225 106.811C64.5336 106.811 63.9228 106.971 63.3901 107.29C62.8645 107.603 62.4526 108.026 62.1543 108.558C61.856 109.084 61.7033 109.67 61.6962 110.316V112.99C61.6962 113.8 61.8453 114.499 62.1436 115.089C62.449 115.678 62.8787 116.133 63.4327 116.452C63.9867 116.772 64.6436 116.932 65.4036 116.932C65.9078 116.932 66.3695 116.861 66.7885 116.719C67.2076 116.577 67.5662 116.364 67.8645 116.08C68.1628 115.795 68.3901 115.447 68.5463 115.036L72.7438 115.312C72.5307 116.321 72.0939 117.202 71.4334 117.955C70.78 118.7 69.9348 119.283 68.8979 119.702C67.8681 120.114 66.6784 120.32 65.329 120.32ZM78.9121 120L74.459 103.636H79.0506L81.5861 114.631H81.7353L84.3773 103.636H88.8837L91.5684 114.567H91.7069L94.1998 103.636H98.7807L94.3382 120H89.5336L86.7211 109.709H86.5186L83.7061 120H78.9121ZM108.23 120V98.1818H116.838C118.486 98.1818 119.892 98.4766 121.057 99.0661C122.229 99.6484 123.12 100.476 123.731 101.548C124.349 102.614 124.658 103.867 124.658 105.309C124.658 106.758 124.345 108.004 123.72 109.048C123.095 110.085 122.19 110.881 121.004 111.435C119.825 111.989 118.397 112.266 116.721 112.266H110.958V108.558H115.975C116.856 108.558 117.588 108.437 118.17 108.196C118.752 107.955 119.186 107.592 119.47 107.109C119.761 106.626 119.906 106.026 119.906 105.309C119.906 104.585 119.761 103.974 119.47 103.477C119.186 102.979 118.749 102.603 118.159 102.347C117.577 102.085 116.842 101.953 115.954 101.953H112.843V120H108.23ZM120.013 110.071L125.436 120H120.343L115.038 110.071H120.013ZM135.026 120.32C133.343 120.32 131.894 119.979 130.68 119.297C129.472 118.608 128.542 117.635 127.888 116.378C127.235 115.114 126.908 113.619 126.908 111.893C126.908 110.21 127.235 108.732 127.888 107.461C128.542 106.19 129.462 105.199 130.648 104.489C131.841 103.778 133.24 103.423 134.845 103.423C135.925 103.423 136.93 103.597 137.86 103.945C138.798 104.286 139.614 104.801 140.31 105.49C141.013 106.179 141.56 107.045 141.951 108.089C142.342 109.126 142.537 110.341 142.537 111.733V112.979H128.719V110.167H138.265C138.265 109.513 138.123 108.935 137.839 108.43C137.555 107.926 137.161 107.532 136.656 107.248C136.159 106.957 135.58 106.811 134.92 106.811C134.231 106.811 133.62 106.971 133.087 107.29C132.562 107.603 132.15 108.026 131.852 108.558C131.553 109.084 131.401 109.67 131.393 110.316V112.99C131.393 113.8 131.543 114.499 131.841 115.089C132.146 115.678 132.576 116.133 133.13 116.452C133.684 116.772 134.341 116.932 135.101 116.932C135.605 116.932 136.067 116.861 136.486 116.719C136.905 116.577 137.263 116.364 137.562 116.08C137.86 115.795 138.087 115.447 138.244 115.036L142.441 115.312C142.228 116.321 141.791 117.202 141.131 117.955C140.477 118.7 139.632 119.283 138.595 119.702C137.565 120.114 136.376 120.32 135.026 120.32ZM150.037 98.1818V120H145.499V98.1818H150.037ZM161.13 120.32C159.447 120.32 157.998 119.979 156.783 119.297C155.576 118.608 154.645 117.635 153.992 116.378C153.339 115.114 153.012 113.619 153.012 111.893C153.012 110.21 153.339 108.732 153.992 107.461C154.645 106.19 155.565 105.199 156.751 104.489C157.944 103.778 159.344 103.423 160.949 103.423C162.028 103.423 163.033 103.597 163.964 103.945C164.901 104.286 165.718 104.801 166.414 105.49C167.117 106.179 167.664 107.045 168.055 108.089C168.445 109.126 168.64 110.341 168.64 111.733V112.979H154.823V110.167H164.368C164.368 109.513 164.226 108.935 163.942 108.43C163.658 107.926 163.264 107.532 162.76 107.248C162.263 106.957 161.684 106.811 161.023 106.811C160.334 106.811 159.724 106.971 159.191 107.29C158.665 107.603 158.253 108.026 157.955 108.558C157.657 109.084 157.504 109.67 157.497 110.316V112.99C157.497 113.8 157.646 114.499 157.944 115.089C158.25 115.678 158.68 116.133 159.233 116.452C159.787 116.772 160.444 116.932 161.204 116.932C161.709 116.932 162.17 116.861 162.589 116.719C163.008 116.577 163.367 116.364 163.665 116.08C163.964 115.795 164.191 115.447 164.347 115.036L168.545 115.312C168.331 116.321 167.895 117.202 167.234 117.955C166.581 118.7 165.736 119.283 164.699 119.702C163.669 120.114 162.479 120.32 161.13 120.32ZM176.268 120.309C175.224 120.309 174.294 120.128 173.477 119.766C172.66 119.396 172.014 118.853 171.538 118.136C171.069 117.411 170.835 116.509 170.835 115.43C170.835 114.521 171.002 113.757 171.336 113.139C171.67 112.521 172.124 112.024 172.699 111.648C173.275 111.271 173.928 110.987 174.66 110.795C175.398 110.604 176.172 110.469 176.982 110.391C177.934 110.291 178.701 110.199 179.283 110.114C179.866 110.021 180.288 109.886 180.551 109.709C180.814 109.531 180.945 109.268 180.945 108.92V108.857C180.945 108.182 180.732 107.66 180.306 107.29C179.887 106.921 179.29 106.737 178.516 106.737C177.699 106.737 177.05 106.918 176.567 107.28C176.084 107.635 175.764 108.082 175.608 108.622L171.41 108.281C171.623 107.287 172.042 106.428 172.667 105.703C173.292 104.972 174.099 104.411 175.086 104.02C176.08 103.622 177.231 103.423 178.537 103.423C179.447 103.423 180.317 103.53 181.148 103.743C181.986 103.956 182.728 104.286 183.374 104.734C184.028 105.181 184.542 105.756 184.919 106.46C185.295 107.156 185.483 107.99 185.483 108.963V120H181.18V117.731H181.052C180.789 118.242 180.437 118.693 179.997 119.084C179.557 119.467 179.028 119.769 178.41 119.989C177.792 120.202 177.078 120.309 176.268 120.309ZM177.568 117.177C178.236 117.177 178.825 117.045 179.336 116.783C179.848 116.513 180.249 116.151 180.54 115.696C180.831 115.241 180.977 114.727 180.977 114.151V112.415C180.835 112.507 180.64 112.592 180.391 112.67C180.15 112.741 179.876 112.809 179.571 112.873C179.265 112.93 178.96 112.983 178.655 113.033C178.349 113.075 178.072 113.114 177.824 113.15C177.291 113.228 176.826 113.352 176.428 113.523C176.03 113.693 175.721 113.924 175.501 114.215C175.281 114.499 175.171 114.854 175.171 115.281C175.171 115.898 175.395 116.371 175.842 116.697C176.297 117.017 176.872 117.177 177.568 117.177ZM202.619 108.303L198.465 108.558C198.394 108.203 198.241 107.884 198.007 107.599C197.772 107.308 197.463 107.077 197.08 106.907C196.703 106.729 196.252 106.641 195.727 106.641C195.024 106.641 194.431 106.79 193.948 107.088C193.465 107.379 193.223 107.77 193.223 108.26C193.223 108.651 193.379 108.981 193.692 109.251C194.004 109.521 194.541 109.737 195.301 109.901L198.262 110.497C199.853 110.824 201.039 111.349 201.82 112.074C202.602 112.798 202.992 113.75 202.992 114.929C202.992 116.001 202.676 116.942 202.044 117.752C201.419 118.562 200.56 119.194 199.466 119.648C198.379 120.096 197.126 120.32 195.705 120.32C193.539 120.32 191.813 119.869 190.528 118.967C189.249 118.058 188.5 116.822 188.28 115.259L192.744 115.025C192.879 115.685 193.205 116.19 193.724 116.538C194.242 116.879 194.906 117.049 195.716 117.049C196.512 117.049 197.151 116.896 197.634 116.591C198.124 116.278 198.372 115.877 198.379 115.387C198.372 114.975 198.198 114.638 197.857 114.375C197.517 114.105 196.991 113.899 196.281 113.757L193.447 113.192C191.849 112.873 190.659 112.319 189.878 111.531C189.104 110.742 188.717 109.737 188.717 108.516C188.717 107.464 189.001 106.559 189.569 105.799C190.144 105.039 190.95 104.453 191.987 104.041C193.031 103.629 194.253 103.423 195.652 103.423C197.719 103.423 199.345 103.86 200.531 104.734C201.725 105.607 202.421 106.797 202.619 108.303ZM213.308 120.32C211.624 120.32 210.175 119.979 208.961 119.297C207.754 118.608 206.823 117.635 206.17 116.378C205.516 115.114 205.19 113.619 205.19 111.893C205.19 110.21 205.516 108.732 206.17 107.461C206.823 106.19 207.743 105.199 208.929 104.489C210.122 103.778 211.521 103.423 213.126 103.423C214.206 103.423 215.211 103.597 216.141 103.945C217.079 104.286 217.896 104.801 218.592 105.49C219.295 106.179 219.842 107.045 220.232 108.089C220.623 109.126 220.818 110.341 220.818 111.733V112.979H207.001V110.167H216.546C216.546 109.513 216.404 108.935 216.12 108.43C215.836 107.926 215.442 107.532 214.938 107.248C214.44 106.957 213.862 106.811 213.201 106.811C212.512 106.811 211.901 106.971 211.369 107.29C210.843 107.603 210.431 108.026 210.133 108.558C209.835 109.084 209.682 109.67 209.675 110.316V112.99C209.675 113.8 209.824 114.499 210.122 115.089C210.428 115.678 210.857 116.133 211.411 116.452C211.965 116.772 212.622 116.932 213.382 116.932C213.886 116.932 214.348 116.861 214.767 116.719C215.186 116.577 215.545 116.364 215.843 116.08C216.141 115.795 216.369 115.447 216.525 115.036L220.722 115.312C220.509 116.321 220.072 117.202 219.412 117.955C218.759 118.7 217.913 119.283 216.876 119.702C215.847 120.114 214.657 120.32 213.308 120.32ZM237.395 108.303L233.24 108.558C233.169 108.203 233.016 107.884 232.782 107.599C232.548 107.308 232.239 107.077 231.855 106.907C231.479 106.729 231.028 106.641 230.502 106.641C229.799 106.641 229.206 106.79 228.723 107.088C228.24 107.379 227.999 107.77 227.999 108.26C227.999 108.651 228.155 108.981 228.467 109.251C228.78 109.521 229.316 109.737 230.076 109.901L233.038 110.497C234.629 110.824 235.815 111.349 236.596 112.074C237.377 112.798 237.768 113.75 237.768 114.929C237.768 116.001 237.452 116.942 236.82 117.752C236.195 118.562 235.335 119.194 234.241 119.648C233.155 120.096 231.901 120.32 230.481 120.32C228.315 120.32 226.589 119.869 225.303 118.967C224.025 118.058 223.276 116.822 223.055 115.259L227.519 115.025C227.654 115.685 227.981 116.19 228.499 116.538C229.018 116.879 229.682 117.049 230.491 117.049C231.287 117.049 231.926 116.896 232.409 116.591C232.899 116.278 233.148 115.877 233.155 115.387C233.148 114.975 232.974 114.638 232.633 114.375C232.292 114.105 231.766 113.899 231.056 113.757L228.222 113.192C226.624 112.873 225.435 112.319 224.653 111.531C223.879 110.742 223.492 109.737 223.492 108.516C223.492 107.464 223.776 106.559 224.344 105.799C224.92 105.039 225.726 104.453 226.763 104.041C227.807 103.629 229.028 103.423 230.428 103.423C232.494 103.423 234.121 103.86 235.307 104.734C236.5 105.607 237.196 106.797 237.395 108.303Z" fill="white"/>
</svg>
