<svg width="111" height="70" viewBox="0 0 111 70" fill="none" xmlns="http://www.w3.org/2000/svg">
<circle cx="56" cy="35" r="26" stroke="#0B0B0B" stroke-width="2"/>
<circle cx="56" cy="35" r="32.5" stroke="#0B0B0B" stroke-width="5"/>
<circle cx="56" cy="35" r="22" fill="#0B0B0B" stroke="#0B0B0B" stroke-width="2"/>
<path d="M20.8029 34.0742H17.5366C17.4769 33.6516 17.3551 33.2763 17.1712 32.9482C16.9872 32.6151 16.7511 32.3317 16.4627 32.098C16.1744 31.8643 15.8413 31.6854 15.4634 31.5611C15.0906 31.4368 14.6854 31.3746 14.2479 31.3746C13.4574 31.3746 12.7688 31.571 12.1822 31.9638C11.5955 32.3516 11.1406 32.9183 10.8175 33.6641C10.4943 34.4048 10.3327 35.3047 10.3327 36.3636C10.3327 37.4524 10.4943 38.3672 10.8175 39.108C11.1456 39.8487 11.603 40.408 12.1896 40.7859C12.7763 41.1637 13.4549 41.3526 14.2255 41.3526C14.658 41.3526 15.0582 41.2955 15.4261 41.1811C15.799 41.0668 16.1296 40.9002 16.418 40.6815C16.7063 40.4577 16.945 40.1868 17.1339 39.8686C17.3278 39.5504 17.462 39.1875 17.5366 38.7798L20.8029 38.7947C20.7184 39.4957 20.5071 40.1719 20.169 40.8232C19.8359 41.4695 19.386 42.0487 18.8192 42.5607C18.2575 43.0678 17.5863 43.4705 16.8058 43.7688C16.0302 44.0621 15.1527 44.2088 14.1733 44.2088C12.8111 44.2088 11.593 43.9006 10.5192 43.2841C9.45028 42.6676 8.60511 41.7752 7.98366 40.6069C7.36719 39.4386 7.05895 38.0241 7.05895 36.3636C7.05895 34.6982 7.37216 33.2812 7.99858 32.1129C8.625 30.9446 9.47514 30.0547 10.549 29.4432C11.6229 28.8267 12.831 28.5185 14.1733 28.5185C15.0582 28.5185 15.8786 28.6428 16.6342 28.8913C17.3949 29.1399 18.0685 29.5028 18.6552 29.9801C19.2418 30.4524 19.7191 31.0316 20.087 31.7177C20.4599 32.4038 20.6985 33.1893 20.8029 34.0742ZM23.0588 44V32.5455H26.2356V44H23.0588ZM24.6547 31.0689C24.1824 31.0689 23.7772 30.9123 23.4391 30.5991C23.106 30.2809 22.9395 29.9006 22.9395 29.4581C22.9395 29.0206 23.106 28.6452 23.4391 28.332C23.7772 28.0138 24.1824 27.8548 24.6547 27.8548C25.127 27.8548 25.5297 28.0138 25.8627 28.332C26.2008 28.6452 26.3699 29.0206 26.3699 29.4581C26.3699 29.9006 26.2008 30.2809 25.8627 30.5991C25.5297 30.9123 25.127 31.0689 24.6547 31.0689ZM31.9573 37.3778V44H28.7805V32.5455H31.8082V34.5664H31.9424C32.1959 33.9002 32.621 33.3732 33.2176 32.9854C33.8142 32.5927 34.5376 32.3963 35.3877 32.3963C36.1831 32.3963 36.8767 32.5703 37.4683 32.9183C38.0599 33.2663 38.5198 33.7635 38.8479 34.4098C39.176 35.0511 39.3401 35.8168 39.3401 36.7067V44H36.1633V37.2734C36.1682 36.5724 35.9893 36.0256 35.6263 35.6328C35.2634 35.2351 34.7638 35.0362 34.1274 35.0362C33.6998 35.0362 33.322 35.1282 32.9939 35.3121C32.6707 35.4961 32.4172 35.7646 32.2332 36.1175C32.0542 36.4656 31.9623 36.8857 31.9573 37.3778ZM47.0641 44.2237C45.8858 44.2237 44.8716 43.9851 44.0215 43.5078C43.1763 43.0256 42.525 42.3445 42.0676 41.4645C41.6103 40.5795 41.3816 39.533 41.3816 38.3249C41.3816 37.1467 41.6103 36.1126 42.0676 35.2227C42.525 34.3327 43.1689 33.6392 43.9991 33.142C44.8343 32.6449 45.8137 32.3963 46.9373 32.3963C47.693 32.3963 48.3965 32.5181 49.0478 32.7617C49.704 33.0004 50.2757 33.3608 50.763 33.843C51.2551 34.3253 51.638 34.9318 51.9114 35.6626C52.1848 36.3885 52.3216 37.2386 52.3216 38.2131V39.0856H42.6493V37.1168H49.3311C49.3311 36.6594 49.2317 36.2543 49.0328 35.9013C48.834 35.5483 48.5581 35.2724 48.2051 35.0735C47.8571 34.8697 47.4519 34.7678 46.9895 34.7678C46.5073 34.7678 46.0797 34.8796 45.7069 35.1033C45.339 35.3221 45.0506 35.6179 44.8418 35.9908C44.633 36.3587 44.5261 36.7688 44.5211 37.2212V39.093C44.5211 39.6598 44.6255 40.1495 44.8343 40.5621C45.0481 40.9748 45.3489 41.293 45.7367 41.5167C46.1245 41.7404 46.5843 41.8523 47.1163 41.8523C47.4693 41.8523 47.7924 41.8026 48.0858 41.7031C48.3791 41.6037 48.6301 41.4545 48.839 41.2557C49.0478 41.0568 49.2069 40.8132 49.3162 40.5249L52.2544 40.7188C52.1053 41.4247 51.7995 42.0412 51.3372 42.5682C50.8798 43.0902 50.2882 43.4979 49.5623 43.7912C48.8414 44.0795 48.0087 44.2237 47.0641 44.2237ZM54.3947 44V32.5455H57.4224V34.5664H57.5566C57.7953 33.8952 58.193 33.3658 58.7498 32.978C59.3066 32.5902 59.9728 32.3963 60.7484 32.3963C61.5339 32.3963 62.2026 32.5927 62.7544 32.9854C63.3063 33.3732 63.6742 33.9002 63.8581 34.5664H63.9775C64.2111 33.9102 64.6337 33.3857 65.2452 32.9929C65.8617 32.5952 66.59 32.3963 67.4302 32.3963C68.4991 32.3963 69.3667 32.7369 70.0328 33.418C70.704 34.0941 71.0396 35.0536 71.0396 36.2965V44H67.8702V36.9229C67.8702 36.2866 67.7012 35.8093 67.3631 35.4911C67.025 35.1729 66.6025 35.0138 66.0953 35.0138C65.5186 35.0138 65.0687 35.1978 64.7456 35.5657C64.4224 35.9286 64.2608 36.4084 64.2608 37.005V44H61.1809V36.8558C61.1809 36.294 61.0194 35.8466 60.6962 35.5135C60.378 35.1804 59.9579 35.0138 59.4359 35.0138C59.0829 35.0138 58.7647 35.1033 58.4814 35.2823C58.2029 35.4563 57.9817 35.7024 57.8176 36.0206C57.6536 36.3338 57.5716 36.7017 57.5716 37.1243V44H54.3947ZM78.7244 44.2237C77.5661 44.2237 76.5643 43.9776 75.7191 43.4854C74.8789 42.9883 74.2301 42.2972 73.7727 41.4123C73.3153 40.5224 73.0866 39.4908 73.0866 38.3175C73.0866 37.1342 73.3153 36.1001 73.7727 35.2152C74.2301 34.3253 74.8789 33.6342 75.7191 33.142C76.5643 32.6449 77.5661 32.3963 78.7244 32.3963C79.8828 32.3963 80.8821 32.6449 81.7223 33.142C82.5675 33.6342 83.2188 34.3253 83.6761 35.2152C84.1335 36.1001 84.3622 37.1342 84.3622 38.3175C84.3622 39.4908 84.1335 40.5224 83.6761 41.4123C83.2188 42.2972 82.5675 42.9883 81.7223 43.4854C80.8821 43.9776 79.8828 44.2237 78.7244 44.2237ZM78.7393 41.7628C79.2663 41.7628 79.7063 41.6136 80.0593 41.3153C80.4123 41.0121 80.6783 40.5994 80.8572 40.0774C81.0412 39.5554 81.1332 38.9613 81.1332 38.2951C81.1332 37.6289 81.0412 37.0348 80.8572 36.5128C80.6783 35.9908 80.4123 35.5781 80.0593 35.2749C79.7063 34.9716 79.2663 34.82 78.7393 34.82C78.2074 34.82 77.7599 34.9716 77.397 35.2749C77.0391 35.5781 76.7681 35.9908 76.5842 36.5128C76.4052 37.0348 76.3157 37.6289 76.3157 38.2951C76.3157 38.9613 76.4052 39.5554 76.5842 40.0774C76.7681 40.5994 77.0391 41.0121 77.397 41.3153C77.7599 41.6136 78.2074 41.7628 78.7393 41.7628ZM86.4279 44V32.5455H89.5078V34.544H89.6271C89.8359 33.8331 90.1864 33.2962 90.6786 32.9332C91.1708 32.5653 91.7376 32.3814 92.3789 32.3814C92.538 32.3814 92.7095 32.3913 92.8935 32.4112C93.0774 32.4311 93.239 32.4585 93.3782 32.4933V35.3121C93.229 35.2674 93.0227 35.2276 92.7592 35.1928C92.4957 35.158 92.2546 35.1406 92.0359 35.1406C91.5685 35.1406 91.1509 35.2425 90.783 35.4464C90.4201 35.6452 90.1317 35.9237 89.918 36.2816C89.7092 36.6396 89.6048 37.0522 89.6048 37.5195V44H86.4279ZM99.7077 44.2237C98.5294 44.2237 97.5152 43.9851 96.665 43.5078C95.8199 43.0256 95.1686 42.3445 94.7112 41.4645C94.2538 40.5795 94.0251 39.533 94.0251 38.3249C94.0251 37.1467 94.2538 36.1126 94.7112 35.2227C95.1686 34.3327 95.8124 33.6392 96.6427 33.142C97.4779 32.6449 98.4573 32.3963 99.5809 32.3963C100.337 32.3963 101.04 32.5181 101.691 32.7617C102.348 33.0004 102.919 33.3608 103.407 33.843C103.899 34.3253 104.282 34.9318 104.555 35.6626C104.828 36.3885 104.965 37.2386 104.965 38.2131V39.0856H95.2929V37.1168H101.975C101.975 36.6594 101.875 36.2543 101.676 35.9013C101.478 35.5483 101.202 35.2724 100.849 35.0735C100.501 34.8697 100.095 34.7678 99.6331 34.7678C99.1508 34.7678 98.7233 34.8796 98.3504 35.1033C97.9825 35.3221 97.6942 35.6179 97.4854 35.9908C97.2765 36.3587 97.1697 36.7688 97.1647 37.2212V39.093C97.1647 39.6598 97.2691 40.1495 97.4779 40.5621C97.6917 40.9748 97.9925 41.293 98.3802 41.5167C98.768 41.7404 99.2279 41.8523 99.7599 41.8523C100.113 41.8523 100.436 41.8026 100.729 41.7031C101.023 41.6037 101.274 41.4545 101.483 41.2557C101.691 41.0568 101.85 40.8132 101.96 40.5249L104.898 40.7188C104.749 41.4247 104.443 42.0412 103.981 42.5682C103.523 43.0902 102.932 43.4979 102.206 43.7912C101.485 44.0795 100.652 44.2237 99.7077 44.2237Z" fill="#E9E9E9"/>
<rect x="1" y="19" width="109" height="33" rx="7" stroke="#E9E9E9" stroke-width="2"/>
</svg>
