<svg width="103" height="59" viewBox="0 0 103 59" fill="none" xmlns="http://www.w3.org/2000/svg">
<path d="M16.8963 39V17.1818H21.5092V35.1967H30.8629V39H16.8963ZM41.226 39.3196C39.5712 39.3196 38.1401 38.968 36.9327 38.2649C35.7324 37.5547 34.8056 36.5675 34.1522 35.3033C33.4988 34.032 33.1721 32.5582 33.1721 30.8821C33.1721 29.1918 33.4988 27.7145 34.1522 26.4503C34.8056 25.179 35.7324 24.1918 36.9327 23.4886C38.1401 22.7784 39.5712 22.4233 41.226 22.4233C42.8809 22.4233 44.3084 22.7784 45.5087 23.4886C46.7161 24.1918 47.6465 25.179 48.2999 26.4503C48.9533 27.7145 49.28 29.1918 49.28 30.8821C49.28 32.5582 48.9533 34.032 48.2999 35.3033C47.6465 36.5675 46.7161 37.5547 45.5087 38.2649C44.3084 38.968 42.8809 39.3196 41.226 39.3196ZM41.2473 35.804C42.0002 35.804 42.6287 35.5909 43.133 35.1648C43.6373 34.7315 44.0172 34.142 44.2729 33.3963C44.5357 32.6506 44.6671 31.8018 44.6671 30.8501C44.6671 29.8984 44.5357 29.0497 44.2729 28.304C44.0172 27.5582 43.6373 26.9687 43.133 26.5355C42.6287 26.1023 42.0002 25.8857 41.2473 25.8857C40.4874 25.8857 39.8482 26.1023 39.3297 26.5355C38.8184 26.9687 38.4313 27.5582 38.1685 28.304C37.9128 29.0497 37.785 29.8984 37.785 30.8501C37.785 31.8018 37.9128 32.6506 38.1685 33.3963C38.4313 34.142 38.8184 34.7315 39.3297 35.1648C39.8482 35.5909 40.4874 35.804 41.2473 35.804ZM59.6032 45.4773C58.133 45.4773 56.8723 45.2749 55.8212 44.87C54.7772 44.4723 53.9462 43.929 53.3283 43.2401C52.7104 42.5511 52.3091 41.777 52.1245 40.9176L56.3219 40.353C56.4498 40.6797 56.6522 40.9851 56.9292 41.2692C57.2061 41.5533 57.5719 41.7805 58.0265 41.951C58.4881 42.1286 59.0492 42.2173 59.7097 42.2173C60.6969 42.2173 61.5101 41.9759 62.1493 41.4929C62.7956 41.017 63.1188 40.218 63.1188 39.0959V36.1023H62.927C62.7282 36.5568 62.4299 36.9865 62.0321 37.3913C61.6344 37.7962 61.123 38.1264 60.498 38.3821C59.873 38.6378 59.1273 38.7656 58.2608 38.7656C57.0321 38.7656 55.9135 38.4815 54.905 37.9134C53.9036 37.3381 53.1046 36.4609 52.508 35.282C51.9185 34.0959 51.6238 32.5973 51.6238 30.7862C51.6238 28.9325 51.9256 27.3842 52.5293 26.1413C53.133 24.8984 53.9355 23.968 54.937 23.3501C55.9455 22.7322 57.0499 22.4233 58.2502 22.4233C59.1664 22.4233 59.9334 22.5795 60.5513 22.892C61.1692 23.1974 61.6664 23.581 62.0428 24.0426C62.4263 24.4972 62.7211 24.9446 62.927 25.3849H63.0975V22.6364H67.6039V39.1598C67.6039 40.5518 67.263 41.7166 66.5811 42.6541C65.8993 43.5916 64.9547 44.2947 63.7473 44.7635C62.5471 45.2393 61.1657 45.4773 59.6032 45.4773ZM59.699 35.3565C60.4306 35.3565 61.0485 35.1754 61.5527 34.8132C62.0641 34.4439 62.4547 33.9183 62.7246 33.2365C63.0016 32.5476 63.1401 31.7237 63.1401 30.7649C63.1401 29.8061 63.0051 28.9751 62.7353 28.272C62.4654 27.5618 62.0748 27.0114 61.5634 26.6207C61.052 26.2301 60.4306 26.0348 59.699 26.0348C58.9533 26.0348 58.3248 26.2372 57.8134 26.642C57.302 27.0398 56.915 27.5937 56.6522 28.304C56.3894 29.0142 56.258 29.8345 56.258 30.7649C56.258 31.7095 56.3894 32.5263 56.6522 33.2152C56.9221 33.897 57.3091 34.4261 57.8134 34.8026C58.3248 35.1719 58.9533 35.3565 59.699 35.3565ZM78.6088 39.3196C76.954 39.3196 75.5229 38.968 74.3155 38.2649C73.1152 37.5547 72.1884 36.5675 71.535 35.3033C70.8816 34.032 70.5549 32.5582 70.5549 30.8821C70.5549 29.1918 70.8816 27.7145 71.535 26.4503C72.1884 25.179 73.1152 24.1918 74.3155 23.4886C75.5229 22.7784 76.954 22.4233 78.6088 22.4233C80.2637 22.4233 81.6912 22.7784 82.8915 23.4886C84.0989 24.1918 85.0293 25.179 85.6827 26.4503C86.3361 27.7145 86.6628 29.1918 86.6628 30.8821C86.6628 32.5582 86.3361 34.032 85.6827 35.3033C85.0293 36.5675 84.0989 37.5547 82.8915 38.2649C81.6912 38.968 80.2637 39.3196 78.6088 39.3196ZM78.6301 35.804C79.383 35.804 80.0115 35.5909 80.5158 35.1648C81.0201 34.7315 81.4 34.142 81.6557 33.3963C81.9185 32.6506 82.0499 31.8018 82.0499 30.8501C82.0499 29.8984 81.9185 29.0497 81.6557 28.304C81.4 27.5582 81.0201 26.9687 80.5158 26.5355C80.0115 26.1023 79.383 25.8857 78.6301 25.8857C77.8702 25.8857 77.231 26.1023 76.7125 26.5355C76.2012 26.9687 75.8141 27.5582 75.5513 28.304C75.2956 29.0497 75.1678 29.8984 75.1678 30.8501C75.1678 31.8018 75.2956 32.6506 75.5513 33.3963C75.8141 34.142 76.2012 34.7315 76.7125 35.1648C77.231 35.5909 77.8702 35.804 78.6301 35.804Z" fill="#BFBFBF"/>
<rect x="2" y="2" width="99" height="55" rx="6" stroke="#A9A6A6" stroke-width="4"/>
</svg>
