<svg width="115" height="25" viewBox="0 0 115 25" fill="none" xmlns="http://www.w3.org/2000/svg">
<rect y="21.25" width="30.052" height="5.3033" rx="2.65165" transform="rotate(-45 0 21.25)" fill="#F4F4F4"/>
<rect x="3.75" width="30.052" height="5.3033" rx="2.65165" transform="rotate(45 3.75 0)" fill="#F4F4F4"/>
<path d="M37.2642 19V4.45455H43.0028C44.1013 4.45455 45.0388 4.65104 45.8153 5.04403C46.5966 5.43229 47.1908 5.9839 47.598 6.69886C48.0099 7.40909 48.2159 8.24479 48.2159 9.20597C48.2159 10.1719 48.0076 11.0028 47.5909 11.6989C47.1742 12.3902 46.5705 12.9205 45.7798 13.2898C44.9938 13.6591 44.0421 13.8438 42.9247 13.8438H39.0824V11.3722H42.4276C43.0147 11.3722 43.5024 11.2917 43.8906 11.1307C44.2789 10.9697 44.5677 10.7282 44.7571 10.4062C44.9512 10.0843 45.0483 9.68419 45.0483 9.20597C45.0483 8.72301 44.9512 8.31581 44.7571 7.98438C44.5677 7.65294 44.2765 7.40199 43.8835 7.23153C43.4953 7.05634 43.0052 6.96875 42.4134 6.96875H40.3395V19H37.2642ZM45.1193 12.3807L48.7344 19H45.3395L41.8026 12.3807H45.1193ZM55.1282 19.2131C54.006 19.2131 53.0401 18.9858 52.2305 18.5312C51.4255 18.072 50.8053 17.4233 50.3697 16.5852C49.9341 15.7424 49.7163 14.7457 49.7163 13.5952C49.7163 12.473 49.9341 11.4882 50.3697 10.6406C50.8053 9.79309 51.4184 9.13258 52.2092 8.65909C53.0046 8.18561 53.9374 7.94886 55.0075 7.94886C55.7272 7.94886 56.3971 8.06487 57.0174 8.29688C57.6424 8.52415 58.1869 8.86742 58.6509 9.3267C59.1197 9.78598 59.4843 10.3636 59.7447 11.0597C60.0051 11.7509 60.1353 12.5606 60.1353 13.4886V14.3196H50.9237V12.4446H57.2873C57.2873 12.009 57.1926 11.6231 57.0032 11.2869C56.8138 10.9508 56.551 10.688 56.2148 10.4986C55.8834 10.3045 55.4975 10.2074 55.0572 10.2074C54.5979 10.2074 54.1907 10.3139 53.8356 10.527C53.4852 10.7353 53.2106 11.017 53.0117 11.3722C52.8129 11.7225 52.7111 12.1132 52.7063 12.544V14.3267C52.7063 14.8665 52.8058 15.3329 53.0046 15.7259C53.2082 16.1188 53.4947 16.4219 53.864 16.6349C54.2333 16.848 54.6713 16.9545 55.1779 16.9545C55.5141 16.9545 55.8219 16.9072 56.1012 16.8125C56.3806 16.7178 56.6197 16.5758 56.8185 16.3864C57.0174 16.197 57.1689 15.965 57.2731 15.6903L60.0714 15.875C59.9293 16.5473 59.6381 17.1345 59.1978 17.6364C58.7622 18.1335 58.1987 18.5218 57.5075 18.8011C56.8209 19.0758 56.0278 19.2131 55.1282 19.2131ZM62.1097 19V8.09091H64.9933V10.0156H65.1211C65.3484 9.37642 65.7272 8.87216 66.2575 8.50284C66.7878 8.13352 67.4222 7.94886 68.1609 7.94886C68.909 7.94886 69.5458 8.13589 70.0714 8.50994C70.5969 8.87926 70.9473 9.38116 71.1225 10.0156H71.2362C71.4587 9.39062 71.8612 8.8911 72.4435 8.51705C73.0307 8.13826 73.7243 7.94886 74.5245 7.94886C75.5425 7.94886 76.3687 8.2732 77.0032 8.92188C77.6424 9.56581 77.962 10.4796 77.962 11.6634V19H74.9435V12.2599C74.9435 11.6539 74.7826 11.1993 74.4606 10.8963C74.1386 10.5933 73.7362 10.4418 73.2532 10.4418C72.704 10.4418 72.2754 10.617 71.9677 10.9673C71.6599 11.313 71.506 11.7699 71.506 12.3381V19H68.5728V12.196C68.5728 11.661 68.4189 11.2348 68.1112 10.9176C67.8081 10.6004 67.408 10.4418 66.9109 10.4418C66.5747 10.4418 66.2717 10.527 66.0018 10.6974C65.7366 10.8632 65.5259 11.0975 65.3697 11.4006C65.2134 11.6989 65.1353 12.0492 65.1353 12.4517V19H62.1097ZM85.2809 19.2131C84.1777 19.2131 83.2236 18.9787 82.4187 18.5099C81.6185 18.0365 81.0006 17.3783 80.565 16.5355C80.1294 15.688 79.9116 14.7055 79.9116 13.5881C79.9116 12.4612 80.1294 11.4763 80.565 10.6335C81.0006 9.78598 81.6185 9.12784 82.4187 8.65909C83.2236 8.18561 84.1777 7.94886 85.2809 7.94886C86.3841 7.94886 87.3358 8.18561 88.136 8.65909C88.9409 9.12784 89.5612 9.78598 89.9968 10.6335C90.4324 11.4763 90.6502 12.4612 90.6502 13.5881C90.6502 14.7055 90.4324 15.688 89.9968 16.5355C89.5612 17.3783 88.9409 18.0365 88.136 18.5099C87.3358 18.9787 86.3841 19.2131 85.2809 19.2131ZM85.2951 16.8693C85.797 16.8693 86.216 16.7273 86.5522 16.4432C86.8884 16.1544 87.1417 15.7614 87.3121 15.2642C87.4873 14.767 87.5749 14.2012 87.5749 13.5668C87.5749 12.9323 87.4873 12.3665 87.3121 11.8693C87.1417 11.3722 86.8884 10.9792 86.5522 10.6903C86.216 10.4015 85.797 10.2571 85.2951 10.2571C84.7885 10.2571 84.3623 10.4015 84.0167 10.6903C83.6758 10.9792 83.4177 11.3722 83.2425 11.8693C83.0721 12.3665 82.9869 12.9323 82.9869 13.5668C82.9869 14.2012 83.0721 14.767 83.2425 15.2642C83.4177 15.7614 83.6758 16.1544 84.0167 16.4432C84.3623 16.7273 84.7885 16.8693 85.2951 16.8693ZM102.436 8.09091L98.6225 19H95.2134L91.3995 8.09091H94.5955L96.8612 15.8963H96.9748L99.2333 8.09091H102.436ZM108.605 19.2131C107.483 19.2131 106.517 18.9858 105.707 18.5312C104.902 18.072 104.282 17.4233 103.846 16.5852C103.411 15.7424 103.193 14.7457 103.193 13.5952C103.193 12.473 103.411 11.4882 103.846 10.6406C104.282 9.79309 104.895 9.13258 105.686 8.65909C106.481 8.18561 107.414 7.94886 108.484 7.94886C109.204 7.94886 109.874 8.06487 110.494 8.29688C111.119 8.52415 111.663 8.86742 112.127 9.3267C112.596 9.78598 112.961 10.3636 113.221 11.0597C113.482 11.7509 113.612 12.5606 113.612 13.4886V14.3196H104.4V12.4446H110.764C110.764 12.009 110.669 11.6231 110.48 11.2869C110.29 10.9508 110.028 10.688 109.691 10.4986C109.36 10.3045 108.974 10.2074 108.534 10.2074C108.074 10.2074 107.667 10.3139 107.312 10.527C106.962 10.7353 106.687 11.017 106.488 11.3722C106.289 11.7225 106.188 12.1132 106.183 12.544V14.3267C106.183 14.8665 106.282 15.3329 106.481 15.7259C106.685 16.1188 106.971 16.4219 107.341 16.6349C107.71 16.848 108.148 16.9545 108.654 16.9545C108.991 16.9545 109.298 16.9072 109.578 16.8125C109.857 16.7178 110.096 16.5758 110.295 16.3864C110.494 16.197 110.645 15.965 110.75 15.6903L113.548 15.875C113.406 16.5473 113.115 17.1345 112.674 17.6364C112.239 18.1335 111.675 18.5218 110.984 18.8011C110.297 19.0758 109.504 19.2131 108.605 19.2131Z" fill="white"/>
</svg>
