<svg width="100%" height="100%" viewBox="0 0 77 50" fill="none" xmlns="http://www.w3.org/2000/svg">
<rect x="1" y="1.00696" width="52" height="8" rx="4" fill="white" stroke="black" stroke-width="2"/>
<rect x="1" y="15.5231" width="52" height="8" rx="4" fill="white" stroke="black" stroke-width="2"/>
<rect x="1.27172" y="-0.607693" width="31" height="6" rx="3" transform="matrix(0.329965 -0.943993 0.941755 0.3363 57.8914 43.5359)" fill="white" stroke="black" stroke-width="2"/>
<path d="M50.7056 30.9232L62.9853 37.6468C64.4386 38.4426 64.9822 40.2715 64.1996 41.7318C63.4169 43.1921 61.6043 43.7309 60.151 42.9352L47.8713 36.2115C46.418 35.4158 45.8744 33.5869 46.6571 32.1266C47.4397 30.6662 49.2523 30.1275 50.7056 30.9232Z" fill="white" stroke="black" stroke-width="2"/>
<rect x="1" y="30.0392" width="41" height="8" rx="4" fill="white" stroke="black" stroke-width="2"/>
<path d="M39 30.007H42V38.007H39V30.007Z" fill="white" stroke="black" stroke-width="2"/>
<path d="M36 31H41V37H36V31Z" fill="white"/>
<path d="M59.703 39.5603L61.6832 33.8964L65.4801 35.2236L63.4999 40.8875L59.703 39.5603Z" fill="white"/>
</svg>
